<?xml version="1.0" standalone="no"?>
<!DOCTYPE svg PUBLIC "-//W3C//DTD SVG 20010904//EN"
 "http://www.w3.org/TR/2001/REC-SVG-20010904/DTD/svg10.dtd">
<svg version="1.0" xmlns="http://www.w3.org/2000/svg"
 width="225.000000pt" height="225.000000pt" viewBox="0 0 225.000000 225.000000"
 preserveAspectRatio="xMidYMid meet">
<metadata>
Created by potrace 1.11, written by Peter Selinger 2001-2013
</metadata>
<g transform="translate(0.000000,225.000000) scale(0.100000,-0.100000)"
fill="#000000" stroke="none">
<path d="M28 2196 c22 -47 29 -53 42 -43 13 10 13 10 2 -4 -10 -13 -10 -22 -1
-43 7 -14 16 -23 20 -20 5 3 6 -2 3 -10 -3 -9 -1 -16 5 -16 6 0 10 -3 10 -7
-3 -21 2 -33 13 -27 6 4 8 3 5 -4 -7 -11 40 -115 55 -120 4 -2 6 -7 3 -12 -3
-5 2 -15 10 -24 9 -8 15 -18 15 -21 -2 -11 25 -65 33 -65 5 0 6 -4 2 -9 -3 -5
0 -15 7 -23 7 -7 14 -20 16 -28 2 -8 8 -18 14 -21 5 -3 9 -9 7 -13 -4 -15 105
-225 114 -219 6 3 7 1 3 -5 -3 -5 25 -72 63 -148 37 -75 70 -133 73 -128 3 5
3 3 2 -4 -5 -19 18 -62 29 -55 6 3 7 1 3 -5 -9 -14 14 -63 27 -55 6 3 7 1 4
-5 -7 -11 40 -115 55 -120 4 -2 6 -7 3 -12 -3 -5 3 -16 12 -26 10 -10 17 -20
15 -23 -6 -12 103 -219 112 -214 5 3 6 1 3 -4 -4 -6 6 -37 22 -69 15 -31 30
-53 33 -48 3 5 3 3 2 -4 -5 -19 18 -62 29 -55 6 3 7 1 3 -5 -9 -14 14 -63 27
-55 6 3 7 1 4 -5 -7 -11 40 -115 55 -120 4 -2 6 -7 3 -12 -3 -5 2 -16 11 -24
8 -9 13 -16 10 -16 -3 0 22 -55 56 -121 44 -90 63 -118 69 -108 28 41 49 91
43 101 -4 6 -3 8 3 5 13 -8 36 41 27 55 -4 6 -3 8 3 5 8 -5 54 82 52 99 0 4 3
10 8 13 18 11 73 132 67 143 -4 7 -2 8 4 4 11 -6 16 6 13 27 0 4 3 7 8 7 9 0
35 54 31 66 -1 4 3 10 8 13 17 11 43 71 36 83 -4 6 -3 8 3 5 10 -7 33 33 33
58 0 7 4 15 8 17 16 7 89 167 78 172 -6 2 -3 5 7 5 15 1 19 7 16 27 0 4 3 10
8 13 11 8 57 103 55 114 -1 4 3 7 9 7 6 0 8 7 5 16 -3 8 -2 13 3 10 5 -3 11 1
14 9 4 10 1 12 -11 9 -11 -3 -10 -1 3 6 22 12 53 65 32 54 -7 -3 -5 1 3 8 17
15 90 158 90 176 0 7 5 12 11 12 5 0 7 5 4 10 -3 6 -1 10 5 10 6 0 9 4 5 9 -3
5 -1 12 5 16 12 7 44 68 55 103 6 21 5 22 -13 11 -16 -10 -23 -10 -36 4 -15
14 -15 16 3 14 11 0 17 -5 14 -10 -3 -5 0 -7 8 -5 8 3 13 14 12 24 -1 10 0 13
3 7 3 -7 13 -13 21 -13 13 0 13 3 2 18 -7 9 -10 14 -5 10 11 -10 35 16 39 42
2 12 8 25 13 28 5 4 16 21 25 39 13 23 14 34 5 43 -8 10 -8 11 1 6 6 -3 14 -2
17 2 3 5 -6 14 -20 21 -18 8 -24 17 -20 27 4 9 2 22 -4 29 -7 8 -5 12 5 12 8
0 12 -4 10 -8 -3 -4 2 -10 11 -13 24 -9 28 -7 15 8 -9 11 -8 15 5 20 10 4 22
2 28 -4 8 -8 6 -9 -6 -5 -11 4 -18 2 -18 -5 0 -6 4 -9 8 -6 5 3 9 -1 9 -9 0
-8 -4 -12 -8 -9 -4 2 -13 -5 -19 -16 -9 -16 -8 -20 4 -20 10 0 13 6 9 17 -4
11 -3 14 6 9 11 -7 27 22 21 40 -1 4 3 10 8 13 13 9 54 91 45 91 -5 0 -1 5 7
10 8 5 15 13 15 17 1 4 6 18 13 29 6 12 9 24 5 27 -3 4 2 9 11 13 14 5 14 9 4
22 -7 9 -8 13 -3 10 9 -5 36 15 35 27 0 3 6 18 14 34 9 16 12 31 9 35 -4 3 0
6 7 6 9 0 8 5 -4 19 -12 13 -14 21 -6 26 6 4 14 4 17 1 4 -3 1 -6 -6 -6 -7 0
-10 -4 -6 -10 3 -5 12 -7 20 -4 8 4 13 10 10 14 -3 5 -1 11 5 15 5 3 14 14 19
23 8 15 5 18 -15 20 -13 1 -24 -4 -24 -11 0 -8 -4 -7 -10 3 -9 13 -11 13 -20
0 -6 -10 -10 -11 -10 -2 0 18 -41 15 -55 -5 -9 -13 -14 -13 -20 -3 -5 9 -4 11
3 6 7 -4 12 -3 12 2 0 5 -89 9 -200 9 -143 0 -198 -3 -193 -11 4 -7 1 -6 -8 1
-20 16 -202 16 -192 0 5 -9 3 -9 -8 -1 -21 17 -1398 17 -1418 1 -12 -9 -13 -9
-7 1 5 9 -3 12 -33 12 l-40 0 27 -54z m1592 40 c0 -2 -8 -10 -17 -17 -16 -13
-17 -12 -4 4 13 16 21 21 21 13z m89 -28 c35 20 37 20 37 2 0 -12 -4 -16 -11
-11 -5 5 -18 7 -27 6 -9 -2 -25 7 -35 18 l-18 22 24 -20 c13 -11 26 -18 30
-17z m195 21 c-4 -8 1 -9 17 -5 20 6 21 5 6 -4 -19 -12 -41 -4 -32 11 4 5 8 9
11 9 3 0 2 -5 -2 -11z m66 1 c0 -5 -5 -10 -11 -10 -5 0 -7 5 -4 10 3 6 8 10
11 10 2 0 4 -4 4 -10z m94 -2 c-3 -4 -12 -8 -20 -8 -8 0 -14 4 -14 8 0 4 9 8
19 8 11 0 17 -4 15 -8z m57 -19 c-5 -13 -10 -19 -10 -12 -1 15 10 45 15 40 3
-2 0 -15 -5 -28z m104 10 c-4 -5 -12 -9 -18 -8 -9 0 -8 2 1 6 6 2 9 10 6 15
-4 7 -2 8 5 4 6 -4 9 -12 6 -17z m-860 2 c3 -5 2 -12 -3 -15 -5 -3 -9 1 -9 9
0 17 3 19 12 6z m41 -11 c0 -12 -4 -16 -9 -11 -5 5 -6 14 -3 20 10 15 12 14
12 -9z m588 4 c3 -8 2 -12 -4 -9 -6 3 -10 10 -10 16 0 14 7 11 14 -7z m23 -16
c-3 -7 -5 -2 -5 12 0 14 2 19 5 13 2 -7 2 -19 0 -25z m-831 7 c-1 -8 -5 -17
-8 -21 -5 -4 -4 16 1 34 3 9 9 -1 7 -13z m154 9 c0 -8 -19 -13 -24 -6 -3 5 1
9 9 9 8 0 15 -2 15 -3z m160 0 c0 -8 -19 -13 -24 -6 -3 5 1 9 9 9 8 0 15 -2
15 -3z m60 0 c0 -8 -19 -13 -24 -6 -3 5 1 9 9 9 8 0 15 -2 15 -3z m89 3 c-2
-1 -13 -9 -24 -17 -19 -14 -19 -14 -6 3 7 9 18 17 24 17 6 0 8 -1 6 -3z m441
-18 c0 -6 -4 -7 -10 -4 -5 3 -10 11 -10 16 0 6 5 7 10 4 6 -3 10 -11 10 -16z
m89 11 c-6 -5 -18 -6 -26 -3 -19 8 -16 11 13 11 17 0 22 -3 13 -8z m-289 -10
c0 -5 -5 -10 -11 -10 -5 0 -7 5 -4 10 3 6 8 10 11 10 2 0 4 -4 4 -10z m-660
-10 c0 -5 -5 -10 -11 -10 -5 0 -7 5 -4 10 3 6 8 10 11 10 2 0 4 -4 4 -10z
m536 -20 c-1 -17 -8 -36 -16 -43 -10 -10 -11 -9 -4 3 5 8 9 23 10 33 3 31 4
37 8 37 3 0 3 -14 2 -30z m204 20 c0 -5 -7 -7 -15 -4 -8 4 -15 8 -15 10 0 2 7
4 15 4 8 0 15 -4 15 -10z m91 -5 c0 -5 11 -16 24 -23 34 -17 20 -50 -19 -43
-4 1 -16 -4 -25 -11 -14 -12 -15 -11 -2 4 7 10 10 26 7 35 -4 12 0 10 12 -5
17 -22 19 -23 33 -6 12 16 12 17 -4 11 -10 -4 -16 -3 -13 2 3 5 -1 12 -10 15
-9 3 -12 11 -8 18 5 8 2 9 -9 5 -10 -3 -17 -2 -17 4 0 6 7 9 16 7 8 -2 15 -7
15 -13z m95 -2 c18 -24 17 -31 -3 -35 -15 -3 -15 -4 0 -20 10 -9 13 -19 8 -23
-5 -3 -12 4 -16 15 -4 11 -12 18 -18 14 -7 -3 -2 3 10 14 20 18 20 20 5 36 -9
9 -12 16 -8 16 5 0 15 -8 22 -17z m-171 -12 c-4 -14 -1 -19 12 -17 10 0 22 6
26 11 5 6 7 4 5 -4 -4 -15 -46 -23 -53 -10 -5 8 4 39 12 39 2 0 2 -9 -2 -19z
m-1095 -1 c0 -5 -5 -10 -11 -10 -5 0 -7 5 -4 10 3 6 8 10 11 10 2 0 4 -4 4
-10z m237 -5 c0 -8 -4 -12 -9 -9 -5 3 -6 10 -3 15 9 13 12 11 12 -6z m439 -15
c-1 -16 -5 -32 -8 -35 -2 -3 -4 7 -2 22 3 41 4 43 8 43 3 0 3 -13 2 -30z m108
21 c-8 -9 -44 -11 -44 -3 0 4 11 8 25 8 13 0 22 -2 19 -5z m201 -1 c3 -6 -1
-7 -9 -4 -18 7 -21 14 -7 14 6 0 13 -4 16 -10z m48 -7 c19 -17 20 -17 14 0 -4
9 -2 17 3 17 12 0 13 -27 2 -33 -4 -3 -18 3 -31 14 -13 10 -20 19 -15 19 4 0
16 -8 27 -17z m207 5 c0 -11 -12 -10 -30 2 -12 7 -10 9 8 7 12 0 22 -5 22 -9z
m-643 -15 c-4 -3 -1 -13 6 -22 11 -14 10 -14 -5 -2 -16 12 -16 31 -1 31 4 0 3
-3 0 -7z m53 3 c0 -2 -8 -10 -17 -17 -16 -13 -17 -12 -4 4 13 16 21 21 21 13z
m326 -8 c4 -7 3 -8 -4 -4 -7 4 -12 2 -12 -3 0 -6 -5 -11 -11 -11 -8 0 -8 5 1
15 15 18 17 18 26 3z m40 0 c4 -7 3 -8 -4 -4 -11 7 -17 -6 -13 -27 1 -5 -3 -6
-9 -2 -7 4 -7 12 0 26 12 22 16 23 26 7z m-275 -15 c13 -16 12 -17 -3 -4 -10
7 -18 15 -18 17 0 8 8 3 21 -13z m32 -3 c-3 -12 -8 -19 -11 -16 -5 6 5 36 12
36 2 0 2 -9 -1 -20z m147 -6 c0 -2 -7 -4 -15 -4 -8 0 -15 4 -15 10 0 5 7 7 15
4 8 -4 15 -8 15 -10z m166 4 c4 -6 3 -8 -4 -4 -5 3 -13 0 -15 -6 -3 -8 -6 -6
-6 5 -1 19 14 23 25 5z m-46 -8 c0 -5 -7 -7 -15 -4 -8 4 -15 8 -15 10 0 2 7 4
15 4 8 0 15 -4 15 -10z m80 1 c0 -5 -7 -11 -14 -14 -10 -4 -13 -1 -9 9 6 15
23 19 23 5z m-409 -24 c-10 -9 -11 -8 -5 6 3 10 9 15 12 12 3 -3 0 -11 -7 -18z
m126 17 c-3 -3 -12 -4 -19 -1 -8 3 -5 6 6 6 11 1 17 -2 13 -5z m407 -10 c10
-25 7 -33 -14 -44 -16 -9 -18 -8 -14 5 3 8 10 12 15 9 5 -3 9 2 9 10 0 22 -16
20 -33 -4 -8 -11 -16 -17 -19 -14 -6 5 32 51 43 53 4 1 10 -6 13 -15z m-44
-64 c0 -5 -7 -7 -15 -4 -8 4 -15 8 -15 10 0 2 7 4 15 4 8 0 15 -4 15 -10z m17
-22 c-9 -5 -14 -15 -11 -22 3 -8 -4 -19 -15 -26 -25 -13 -28 -32 -3 -24 14 5
14 4 2 -4 -10 -8 -18 -8 -27 0 -8 6 -16 8 -19 5 -3 -3 3 -11 15 -18 19 -12 19
-15 4 -31 -9 -10 -13 -18 -9 -18 4 0 2 -9 -4 -20 -8 -14 -17 -19 -30 -15 -10
3 -21 1 -25 -5 -3 -5 -12 -10 -18 -10 -8 0 -7 4 2 9 8 5 16 17 17 27 2 10 10
21 18 26 9 5 16 14 16 19 0 6 -5 7 -12 3 -7 -5 -8 -3 -4 5 6 9 13 8 27 -5 20
-18 27 -6 7 14 -6 6 -13 22 -15 34 -2 17 -1 19 6 9 5 -8 16 -11 26 -7 17 6 17
8 -1 27 -15 16 -15 19 -2 14 10 -4 24 1 35 13 10 10 22 17 27 14 5 -3 1 -9 -7
-14z m-139 -73 c-3 -3 -9 2 -12 12 -6 14 -5 15 5 6 7 -7 10 -15 7 -18z m-8
-50 c-7 -8 -17 -15 -23 -15 -6 0 -2 7 9 15 25 19 30 19 14 0z m-55 -53 c-3 -3
-11 0 -18 7 -9 10 -8 11 6 5 10 -3 15 -9 12 -12z m38 -120 c-2 -13 2 -20 10
-18 6 1 9 1 5 -1 -5 -3 -8 -10 -8 -17 0 -19 -32 -42 -60 -44 -19 -1 -21 1 -10
8 12 8 13 10 1 10 -8 0 -12 3 -9 6 4 3 15 1 27 -5 16 -9 22 -8 31 8 14 26 13
31 -5 25 -8 -4 -12 -10 -9 -15 3 -5 -3 -6 -12 -2 -10 4 -13 8 -7 10 7 3 11 10
9 16 -1 7 -1 9 1 5 3 -5 9 -8 14 -8 6 0 8 4 5 9 -4 5 0 12 6 14 10 4 9 8 -2
17 -13 10 -13 11 0 7 8 -2 14 -14 13 -25z m-1619 -50 c3 -5 -1 -9 -9 -9 -8 0
-12 4 -9 9 3 4 7 8 9 8 2 0 6 -4 9 -8z m1592 -55 c5 -4 0 -5 -11 -1 -17 7 -18
6 -7 -8 10 -13 10 -17 -2 -21 -11 -4 -13 -1 -9 10 4 10 2 14 -4 10 -6 -4 -13
-1 -16 6 -5 14 36 18 49 4z m-146 -3 c0 -8 -19 -13 -24 -6 -3 5 1 9 9 9 8 0
15 -2 15 -3z m85 -15 c-4 -5 -1 -9 4 -9 6 0 11 -5 11 -12 0 -9 -3 -9 -12 0
-14 14 -20 44 -7 36 5 -3 7 -10 4 -15z m-5 -40 c0 -5 -8 -9 -17 -8 -11 0 -13
3 -5 6 6 2 9 10 6 15 -4 7 -2 8 4 4 7 -4 12 -11 12 -17z m-20 -70 c0 -14 -17
-10 -23 5 -4 10 -1 13 9 9 7 -3 14 -9 14 -14z m30 1 c0 -5 -5 -10 -11 -10 -5
0 -7 5 -4 10 3 6 8 10 11 10 2 0 4 -4 4 -10z m-18 -28 c-6 -2 -10 -7 -8 -11 3
-4 -4 -8 -15 -8 -11 -1 -17 2 -14 7 3 4 -1 10 -7 12 -7 3 3 5 22 5 19 0 29 -2
22 -5z m-57 -33 c-4 -5 -12 -9 -18 -8 -9 0 -8 2 1 6 6 2 9 10 6 15 -4 7 -2 8
5 4 6 -4 9 -12 6 -17z m40 -9 c-3 -5 -14 -10 -23 -9 -14 0 -13 2 3 9 27 11 27
11 20 0z m-51 -50 c3 0 5 5 4 11 -2 6 4 14 12 16 12 4 12 3 2 -5 -8 -5 -13
-13 -12 -18 4 -19 -19 -13 -30 8 -10 21 -10 21 3 6 8 -10 17 -18 21 -18z m-44
-20 c0 -5 -5 -10 -11 -10 -5 0 -7 5 -4 10 3 6 8 10 11 10 2 0 4 -4 4 -10z m-5
-41 c-4 -5 -12 -9 -18 -8 -9 0 -8 2 1 6 6 2 9 10 6 15 -4 7 -2 8 5 4 6 -4 9
-12 6 -17z m45 11 c0 -5 -4 -10 -10 -10 -5 0 -10 5 -10 10 0 6 5 10 10 10 6 0
10 -4 10 -10z m-21 -23 c-2 -1 -13 -9 -24 -17 -19 -14 -19 -14 -6 3 7 9 18 17
24 17 6 0 8 -1 6 -3z m-56 -34 c-5 -12 -3 -14 7 -8 9 6 11 4 5 -4 -5 -9 -11
-9 -17 -3 -6 6 -7 15 -4 21 11 17 16 13 9 -6z m47 -7 c0 -2 -8 -10 -17 -17
-16 -13 -17 -12 -4 4 13 16 21 21 21 13z m-70 -110 c0 -2 -6 -9 -14 -15 -11
-9 -16 -9 -22 0 -4 7 -3 9 4 5 6 -3 13 -2 17 4 6 10 15 14 15 6z m-46 -22 c3
-8 2 -12 -4 -9 -6 3 -10 10 -10 16 0 14 7 11 14 -7z m-19 -62 c-3 -3 -11 0
-18 7 -9 10 -8 11 6 5 10 -3 15 -9 12 -12z m-100 -181 c3 -5 2 -12 -3 -15 -5
-3 -9 1 -9 9 0 17 3 19 12 6z"/>
<path d="M2070 1990 c0 -5 5 -10 10 -10 6 0 10 5 10 10 0 6 -4 10 -10 10 -5 0
-10 -4 -10 -10z"/>
<path d="M2004 1878 c-10 -12 -14 -18 -7 -15 6 4 13 1 16 -5 6 -17 17 -6 22
21 5 27 -7 27 -31 -1z"/>
<path d="M1956 1781 c-4 -7 -5 -15 -2 -18 9 -9 19 4 14 18 -4 11 -6 11 -12 0z"/>
</g>
</svg>
